<?xml version="1.0" encoding="UTF-8" standalone="no"?>
<!-- Created with Inkscape (http://www.inkscape.org/) -->

<svg
   width="1872.6986"
   height="1872.6986"
   viewBox="0 0 495.48481 495.48481"
   version="1.1"
   id="svg5"
   inkscape:version="1.1.2 (0a00cf5339, 2022-02-04)"
   sodipodi:docname="whatsthis-v2-circle.svg"
   inkscape:export-filename="/home/casey/Pictures/ico/whatsthis-16.png"
   inkscape:export-xdpi="0.82020682"
   inkscape:export-ydpi="0.82020682"
   xmlns:inkscape="http://www.inkscape.org/namespaces/inkscape"
   xmlns:sodipodi="http://sodipodi.sourceforge.net/DTD/sodipodi-0.dtd"
   xmlns:xlink="http://www.w3.org/1999/xlink"
   xmlns="http://www.w3.org/2000/svg"
   xmlns:svg="http://www.w3.org/2000/svg">
  <sodipodi:namedview
     id="namedview7"
     pagecolor="#ffffff"
     bordercolor="#666666"
     borderopacity="1.0"
     inkscape:pageshadow="2"
     inkscape:pageopacity="0.0"
     inkscape:pagecheckerboard="0"
     inkscape:document-units="mm"
     showgrid="false"
     fit-margin-top="0"
     fit-margin-left="0"
     fit-margin-right="0"
     fit-margin-bottom="0"
     inkscape:zoom="0.20903063"
     inkscape:cx="1499.7802"
     inkscape:cy="1011.8134"
     inkscape:window-width="1846"
     inkscape:window-height="1011"
     inkscape:window-x="74"
     inkscape:window-y="32"
     inkscape:window-maximized="1"
     inkscape:current-layer="layer1"
     units="px"
     width="512px" />
  <defs
     id="defs2">
    <linearGradient
       inkscape:collect="always"
       id="linearGradient1130">
      <stop
         style="stop-color:#da00da;stop-opacity:1"
         offset="0"
         id="stop1126" />
      <stop
         style="stop-color:#9e009e;stop-opacity:1"
         offset="1"
         id="stop1128" />
    </linearGradient>
    <linearGradient
       inkscape:collect="always"
       xlink:href="#linearGradient1130"
       id="linearGradient21253"
       x1="570.2171"
       y1="300.9151"
       x2="602.96857"
       y2="300.9151"
       gradientUnits="userSpaceOnUse"
       gradientTransform="matrix(15.128625,0,0,3.7821565,-8521.1634,-1293.4793)" />
  </defs>
  <g
     inkscape:label="Layer 1"
     inkscape:groupmode="layer"
     id="layer1"
     transform="translate(92.37114,-105.43712)">
    <circle
       style="fill:url(#linearGradient21253);fill-opacity:1;stroke-width:2.00139"
       id="path21245"
       cx="353.17953"
       cy="-155.37128"
       r="247.74242"
       transform="rotate(90)" />
    <g
       id="g20177"
       transform="matrix(220.35498,0,0,224.48089,-9834.7929,-57265.841)"
       style="fill:#ffffff;fill-opacity:1">
      <path
         d="m 45.329366,257.26007 -0.147167,0.0232 -0.30241,-1.47231 0.280537,-0.0442 z m -0.190508,0.27309 c 0,0.0466 0.0042,-0.0879 0.03443,-0.1256 0.03019,-0.0377 0.06752,-0.0601 0.111974,-0.0671 0.04906,-0.008 0.08878,1.7e-4 0.119189,0.0237 0.0304,0.0235 0.04886,0.0559 0.05538,0.0973 0.0077,0.049 -0.0036,0.0917 -0.03407,0.12789 -0.0289,0.036 -0.06788,0.0578 -0.116934,0.0655 -0.03986,0.006 -0.0764,-0.001 -0.109629,-0.0228 -0.03347,-0.023 -0.06034,-0.14233 -0.06034,-0.0989 z"
         style="font-size:10.5833px;line-height:1.25;font-family:Merriweather;-inkscape-font-specification:Merriweather;fill:#ffffff;fill-opacity:1;stroke-width:0.0581949"
         id="path19694"
         sodipodi:nodetypes="cccccssssscscss" />
      <g
         aria-label="?"
         id="text16017"
         style="font-size:10.5833px;line-height:1.25;fill:#ffffff;fill-opacity:1;stroke-width:0.264583"
         transform="matrix(0.21056146,0.06357415,-0.06357415,0.21056146,51.546795,199.39063)">
        <path
           d="m 48.240331,260.06366 c -0.105833,-0.23989 -0.1905,-0.48683 -0.253999,-0.74083 -0.05645,-0.254 -0.09172,-0.49036 -0.105833,-0.70908 0,-0.27517 0.102305,-0.51506 0.306915,-0.71967 0.204611,-0.20461 0.511526,-0.44097 0.920747,-0.70908 0.282221,-0.1905 0.497415,-0.34219 0.645582,-0.45508 0.155221,-0.11995 0.285749,-0.25047 0.391582,-0.39158 0,-0.0423 0.0071,-0.14817 0.02117,-0.3175 0.02117,-0.16933 0.03175,-0.28928 0.03175,-0.35983 0,-0.3175 -0.09525,-0.62089 -0.285749,-0.91017 -0.183444,-0.28927 -0.45861,-0.52211 -0.825497,-0.6985 -0.359832,-0.17639 -0.783164,-0.26458 -1.269996,-0.26458 -0.303388,0 -0.218811,0.0282 -0.420307,0.037 l -0.158749,-0.65616 c 0.119944,-0.0706 0.22938,-0.0887 0.396693,-0.11135 0.188064,0.004 0.24939,-0.0209 0.510445,-0.0209 1.030108,0 1.795633,0.23989 2.296576,0.71966 0.500943,0.47978 0.751414,1.10067 0.751414,1.86266 0,0.33161 -0.07055,0.62442 -0.211666,0.87842 -0.134055,0.254 -0.29986,0.46919 -0.497415,0.64558 -0.190499,0.16933 -0.433915,0.35983 -0.730247,0.5715 -0.225777,0.16227 -0.402166,0.29633 -0.529165,0.40216 -0.119944,0.10583 -0.211666,0.21872 -0.275166,0.33867 -0.0071,0.0565 -0.01058,0.15172 -0.01058,0.28575 0,0.55739 0.01764,0.99836 0.05292,1.32291 z"
           style="font-family:Merriweather;-inkscape-font-specification:Merriweather;fill:#ffffff;fill-opacity:1"
           id="path19412"
           sodipodi:nodetypes="ccccccccsccscccscscccccscc" />
      </g>
    </g>
  </g>
</svg>
